<?xml version="1.0" encoding="UTF-8"?>
<svg width="1200" height="800" viewBox="0 0 1200 800" fill="none" xmlns="http://www.w3.org/2000/svg">
  <defs>
    <linearGradient id="bg" x1="0" x2="1" y1="0" y2="1">
      <stop offset="0%" stop-color="#0F172A" />
      <stop offset="100%" stop-color="#2563EB" />
    </linearGradient>
    <linearGradient id="card" x1="0" x2="1" y1="0" y2="1">
      <stop offset="0%" stop-color="#1E293B" />
      <stop offset="100%" stop-color="#334155" />
    </linearGradient>
    <linearGradient id="accent" x1="0" x2="1" y1="0" y2="0">
      <stop offset="0%" stop-color="#F97316" />
      <stop offset="100%" stop-color="#60A5FA" />
    </linearGradient>
  </defs>

  <rect width="1200" height="800" rx="40" fill="url(#bg)" />
  <circle cx="240" cy="180" r="160" fill="#E0F2FE" opacity="0.12" />
  <circle cx="980" cy="150" r="110" fill="#FDE68A" opacity="0.12" />

  <g transform="translate(100 180)">
    <rect x="0" y="0" width="620" height="420" rx="40" fill="url(#card)" opacity="0.95" />
    <rect x="34" y="34" width="240" height="80" rx="18" fill="#fff" opacity="0.06" />
    <rect x="34" y="130" width="520" height="28" rx="14" fill="#fff" opacity="0.08" />
    <rect x="34" y="180" width="440" height="24" rx="12" fill="#fff" opacity="0.08" />
    <rect x="34" y="220" width="380" height="24" rx="12" fill="#fff" opacity="0.08" />
    <rect x="34" y="280" width="160" height="160" rx="24" fill="url(#accent)" opacity="0.95" />
    <path d="M148 242C158 242 166 250 166 260C166 274 148 286 148 286C148 286 130 274 130 260C130 250 138 242 148 242Z" fill="#fff" opacity="0.95" />
    <path d="M148 286C154 286 158 278 158 272C158 266 154 258 148 258C142 258 138 266 138 272C138 278 142 286 148 286Z" fill="#fff" opacity="0.85" />
  </g>

  <g transform="translate(780 260)">
    <rect x="0" y="0" width="320" height="160" rx="24" fill="#fff" opacity="0.12" />
    <path d="M48 44C48 28.536 60.536 16 76 16H244C259.464 16 272 28.536 272 44V96C272 111.464 259.464 124 244 124H76C60.536 124 48 111.464 48 96V44Z" fill="#fff" opacity="0.18" />
    <path d="M92 64H228" stroke="#fff" stroke-width="16" stroke-linecap="round" opacity="0.95" />
    <path d="M92 100H196" stroke="#fff" stroke-width="16" stroke-linecap="round" opacity="0.95" />
    <circle cx="70" cy="70" r="22" fill="#fff" opacity="0.95" />
  </g>

  <path d="M220 520C220 468.147 263.147 425 315 425H675C726.853 425 770 468.147 770 520V572H220V520Z" fill="#fff" opacity="0.08" />
  <path d="M380 510C380 477.461 406.461 451 439 451H551C583.539 451 610 477.461 610 510V544H380V510Z" fill="#fff" opacity="0.12" />

  <g transform="translate(460 420)">
    <rect x="-70" y="0" width="220" height="30" rx="15" fill="url(#accent)" />
    <rect x="-90" y="42" width="380" height="18" rx="9" fill="#fff" opacity="0.9" />
    <rect x="-90" y="70" width="320" height="18" rx="9" fill="#fff" opacity="0.7" />
  </g>

  <g transform="translate(810 360)">
    <circle cx="80" cy="80" r="78" fill="#fff" opacity="0.08" />
    <path d="M38 84C38 64.386 53.386 49 73 49H87C106.614 49 122 64.386 122 84V108C122 127.614 106.614 143 87 143H73C53.386 143 38 127.614 38 108V84Z" fill="#fff" opacity="0.16" />
    <path d="M73 68C81.2843 68 88 74.7157 88 83C88 91.2843 81.2843 98 73 98C64.7157 98 58 91.2843 58 83C58 74.7157 64.7157 68 73 68Z" fill="#fff" />
    <path d="M53 120C53 107.297 63.297 97 76 97H90C102.703 97 113 107.297 113 120V130H53V120Z" fill="#fff" />
  </g>

  <text x="120" y="120" fill="#fff" font-family="Inter, Arial, sans-serif" font-size="56" font-weight="800">CM EDUCATION HUB</text>
  <text x="120" y="180" fill="#E2E8F0" font-family="Inter, Arial, sans-serif" font-size="28" font-weight="500">Your Future. Our Guidance.</text>
  <text x="120" y="230" fill="#CBD5E1" font-family="Inter, Arial, sans-serif" font-size="22" font-weight="400">Admissions support for B.Tech, BBA, BCA, MBA, Law and Nursing.</text>
</svg>
