<?xml version="1.0" encoding="UTF-8"?>
<svg width="1440" height="900" viewBox="0 0 1440 900" fill="none" xmlns="http://www.w3.org/2000/svg">
  <defs>
    <linearGradient id="bg" x1="0" y1="0" x2="1" y2="1">
      <stop offset="0%" stop-color="#f97316" />
      <stop offset="100%" stop-color="#2563eb" />
    </linearGradient>
    <linearGradient id="card" x1="0" y1="0" x2="1" y2="1">
      <stop offset="0%" stop-color="#ffffff" stop-opacity="0.95" />
      <stop offset="100%" stop-color="#e2e8f0" stop-opacity="0.8" />
    </linearGradient>
    <linearGradient id="accent" x1="0" y1="0" x2="1" y2="0">
      <stop offset="0%" stop-color="#1d4ed8" />
      <stop offset="100%" stop-color="#f97316" />
    </linearGradient>
  </defs>
  <rect width="1440" height="900" rx="60" fill="url(#bg)" />
  <circle cx="220" cy="170" r="120" fill="#ffffff" opacity="0.14" />
  <circle cx="1220" cy="170" r="90" fill="#ffffff" opacity="0.12" />
  <rect x="80" y="180" width="1280" height="520" rx="42" fill="url(#card)" />
  <rect x="144" y="240" width="380" height="78" rx="24" fill="white" opacity="0.96" />
  <rect x="144" y="340" width="1000" height="18" rx="9" fill="#94a3b8" opacity="0.3" />
  <rect x="144" y="380" width="720" height="18" rx="9" fill="#94a3b8" opacity="0.25" />
  <rect x="144" y="420" width="540" height="18" rx="9" fill="#94a3b8" opacity="0.25" />
  <rect x="144" y="500" width="220" height="12" rx="6" fill="#f97316" />
  <circle cx="1120" cy="390" r="82" fill="#1d4ed8" opacity="0.18" />
  <circle cx="1100" cy="520" r="24" fill="#1d4ed8" />
  <circle cx="990" cy="560" r="18" fill="#2563eb" opacity="0.85" />
  <path d="M190 532C190 500 222 470 260 470H520C558 470 590 500 590 532V584H190V532Z" fill="#e2e8f0" opacity="0.55" />
  <path d="M260 470C285 470 304 486 304 514H256C256 486 275 470 300 470Z" fill="#2563eb" opacity="0.7" />
  <path d="M1220 270L1320 270L1320 330L1220 330Z" fill="url(#accent)" opacity="0.9" />
  <text x="200" y="310" fill="#0f172a" font-family="Inter, Arial, sans-serif" font-size="64" font-weight="800">CM EDUCATION HUB</text>
  <text x="200" y="380" fill="#334155" font-family="Inter, Arial, sans-serif" font-size="26" font-weight="500">Your Future, Our Guidance</text>
  <text x="200" y="430" fill="#475569" font-family="Inter, Arial, sans-serif" font-size="20" font-weight="400">Admissions support for B.Tech, BBA, BCA, MBA, Law and Nursing.</text>
</svg>
